<?xml version="1.0" standalone="no"?>
<!DOCTYPE svg PUBLIC "-//W3C//DTD SVG 20010904//EN"
 "http://www.w3.org/TR/2001/REC-SVG-20010904/DTD/svg10.dtd">
<svg version="1.0" xmlns="http://www.w3.org/2000/svg"
 width="476.000000pt" height="476.000000pt" viewBox="0 0 476.000000 476.000000"
 preserveAspectRatio="xMidYMid meet">

<g transform="translate(0.000000,476.000000) scale(0.100000,-0.100000)"
fill="#54101d" stroke="none">
<path d="M2205 4754 c-230 -23 -465 -74 -640 -139 -742 -277 -1297 -891 -1490
-1649 -54 -214 -69 -342 -69 -586 0 -243 15 -369 69 -585 211 -839 881 -1509
1720 -1720 216 -54 342 -69 585 -69 244 0 372 15 586 69 841 214 1508 881
1719 1720 54 216 69 342 69 585 0 243 -15 369 -69 585 -190 754 -753 1379
-1489 1650 -129 47 -333 99 -476 120 -109 16 -428 28 -515 19z m551 -253 c677
-128 1232 -541 1543 -1146 155 -302 231 -621 231 -975 0 -492 -147 -921 -453
-1325 -73 -96 -254 -280 -353 -357 -287 -227 -618 -376 -989 -444 -138 -25
-479 -30 -630 -10 -484 67 -899 271 -1241 611 -321 318 -519 695 -607 1154
-19 101 -22 149 -22 371 0 222 3 270 22 371 71 369 214 684 441 974 118 150
348 357 518 467 251 162 541 270 849 319 169 26 529 21 691 -10z"/>
<path d="M2323 4040 c-17 -10 -37 -28 -42 -39 -8 -13 -11 -280 -11 -841 l0
-822 34 -34 34 -34 599 0 c575 0 599 1 630 20 47 28 62 85 37 136 -11 22 -30
44 -44 51 -19 10 -151 13 -547 13 l-523 0 0 748 c0 821 3 774 -60 807 -39 20
-69 19 -107 -5z"/>
</g>
</svg>
