<?xml version="1.0" standalone="no"?>
<!DOCTYPE svg PUBLIC "-//W3C//DTD SVG 20010904//EN"
 "http://www.w3.org/TR/2001/REC-SVG-20010904/DTD/svg10.dtd">
<svg version="1.0" xmlns="http://www.w3.org/2000/svg"
 width="189.000000pt" height="144.000000pt" viewBox="0 0 189.000000 144.000000"
 preserveAspectRatio="xMidYMid meet">

<g transform="translate(0.000000,144.000000) scale(0.100000,-0.100000)"
fill="#54101d" stroke="none">
<path d="M116 1395 c-8 -8 -22 -15 -30 -15 -9 0 -16 -7 -16 -15 0 -8 -7 -15
-15 -15 -8 0 -15 -9 -15 -19 0 -11 -7 -26 -15 -35 -13 -13 -15 -97 -15 -640
l0 -626 905 0 905 0 0 169 0 169 30 7 30 7 0 259 0 260 -30 6 -30 6 0 168 0
168 -107 3 -108 3 -3 78 -3 77 -734 0 c-639 0 -736 -2 -749 -15z m1432 -25
c20 0 22 -4 22 -60 l0 -60 -750 0 -750 0 0 35 c0 24 5 35 15 35 8 0 15 7 15
15 0 8 7 15 15 15 8 0 15 4 15 10 0 9 1262 21 1360 13 19 -1 45 -3 58 -3z
m212 -165 c0 -8 7 -15 15 -15 13 0 15 -22 15 -140 l0 -140 -295 0 c-242 0
-297 -2 -301 -14 -3 -7 -22 -16 -44 -20 -21 -3 -40 -13 -44 -21 -3 -8 -12 -15
-21 -15 -8 0 -15 -7 -15 -15 0 -8 -7 -15 -15 -15 -8 0 -15 -7 -15 -15 0 -8 -7
-15 -15 -15 -11 0 -15 -12 -15 -45 0 -33 -4 -45 -15 -45 -11 0 -15 -12 -15
-44 0 -24 5 -46 11 -48 6 -2 13 -25 16 -51 4 -31 10 -47 19 -47 8 0 14 -7 14
-15 0 -8 7 -15 15 -15 8 0 15 -7 15 -15 0 -8 7 -15 15 -15 8 0 15 -7 15 -15 0
-10 10 -15 26 -15 15 0 32 -7 39 -17 11 -14 47 -17 300 -21 264 -4 289 -6 306
-23 17 -17 19 -36 19 -148 0 -125 -1 -129 -22 -135 -13 -3 -399 -6 -859 -6
l-837 0 -3 23 c-2 12 -3 273 -1 580 l2 557 845 0 c744 0 845 -2 845 -15z m58
-339 c5 -6 6 -53 4 -283 l-2 -173 -311 0 c-263 0 -313 2 -325 15 -9 8 -24 15
-35 15 -10 0 -19 7 -19 15 0 8 -7 15 -15 15 -8 0 -15 7 -15 15 0 8 -7 15 -15
15 -8 0 -15 7 -15 15 0 8 -7 15 -15 15 -12 0 -15 19 -15 110 0 91 3 110 15
110 8 0 15 7 15 15 0 8 7 15 15 15 8 0 15 7 15 15 0 8 7 15 15 15 8 0 15 7 15
15 0 8 14 17 35 21 19 3 35 10 35 14 0 5 15 10 33 12 47 4 580 -1 585 -6z"/>
<path d="M1250 736 c0 -8 -11 -17 -24 -20 -19 -5 -25 -15 -30 -51 -9 -55 -1
-81 32 -112 30 -28 122 -34 122 -8 0 8 7 15 16 15 9 0 18 9 21 20 3 11 9 20
14 20 16 0 10 77 -6 84 -8 3 -15 12 -15 21 0 8 -7 15 -15 15 -8 0 -15 7 -15
15 0 11 -12 15 -50 15 -36 0 -50 -4 -50 -14z m70 -31 c0 -8 6 -15 14 -15 18 0
25 -31 19 -79 -4 -29 -11 -41 -27 -45 -39 -10 -66 -7 -66 9 0 9 -7 18 -15 21
-10 4 -15 20 -15 50 0 32 4 44 15 44 8 0 15 7 15 15 0 10 10 15 30 15 20 0 30
-5 30 -15z"/>
</g>
</svg>
