<?xml version="1.0" standalone="no"?>
<!DOCTYPE svg PUBLIC "-//W3C//DTD SVG 20010904//EN"
 "http://www.w3.org/TR/2001/REC-SVG-20010904/DTD/svg10.dtd">
<svg version="1.0" xmlns="http://www.w3.org/2000/svg"
 width="154.000000pt" height="188.000000pt" viewBox="0 0 154.000000 188.000000"
 preserveAspectRatio="xMidYMid meet">

<g transform="translate(0.000000,188.000000) scale(0.100000,-0.100000)"
fill="#54101d" stroke="none">
<path d="M287 1873 c-4 -3 -7 -39 -7 -80 l0 -73 -119 0 c-66 0 -126 -3 -135
-6 -17 -6 -23 -54 -7 -54 4 0 11 -21 14 -46 2 -26 9 -49 15 -53 6 -3 14 -19
17 -34 4 -15 13 -27 21 -27 8 0 14 -7 14 -15 0 -8 7 -15 15 -15 8 0 15 -6 15
-14 0 -9 18 -15 57 -18 31 -3 59 -10 61 -16 2 -7 10 -12 17 -12 11 0 14 -37
17 -181 3 -159 5 -182 20 -190 10 -6 18 -17 18 -24 0 -8 7 -15 15 -15 8 0 15
-7 15 -15 0 -8 7 -15 15 -15 8 0 15 -7 15 -15 0 -10 10 -15 30 -15 20 0 30 -5
30 -15 0 -11 12 -15 45 -15 31 0 47 -5 51 -15 5 -12 25 -15 88 -15 44 0 91 -3
104 -6 l22 -6 0 -398 0 -398 -22 -6 c-13 -3 -83 -6 -155 -6 -112 0 -133 -2
-133 -15 0 -13 43 -15 324 -15 178 0 331 3 340 6 43 17 2 24 -133 24 -82 0
-156 3 -165 6 -14 5 -16 50 -16 404 l0 398 23 6 c12 3 59 6 105 6 66 0 82 3
82 15 0 11 12 15 45 15 33 0 45 4 45 15 0 10 11 15 35 15 24 0 35 5 35 15 0 8
7 15 15 15 8 0 15 7 15 15 0 8 7 15 15 15 8 0 15 7 15 15 0 7 8 18 17 23 14 8
17 32 19 173 2 90 3 172 4 182 0 9 5 17 11 17 6 0 17 7 25 15 10 9 34 15 65
15 37 0 49 4 49 15 0 8 7 15 15 15 8 0 15 7 15 15 0 8 7 15 15 15 8 0 15 9 15
19 0 11 6 26 14 33 7 8 16 35 20 61 4 26 11 47 17 47 5 0 9 14 9 30 l0 30
-135 0 c-153 0 -136 -13 -139 100 l-1 55 -481 3 c-264 1 -484 -1 -487 -5z
m933 -423 c0 -340 -2 -390 -15 -390 -8 0 -15 -7 -15 -15 0 -8 -7 -15 -15 -15
-8 0 -15 -7 -15 -15 0 -8 -7 -15 -15 -15 -8 0 -15 -7 -15 -15 0 -10 -10 -15
-30 -15 -20 0 -30 -5 -30 -15 0 -11 -12 -15 -50 -15 -38 0 -50 -4 -50 -15 0
-22 -364 -22 -386 0 -10 9 -34 15 -65 15 -37 0 -49 4 -49 15 0 10 -10 15 -30
15 -20 0 -30 5 -30 15 0 8 -7 15 -15 15 -8 0 -15 7 -15 15 0 8 -7 15 -15 15
-8 0 -15 7 -15 15 0 9 -7 18 -15 21 -13 5 -15 58 -15 390 l0 384 450 0 450 0
0 -390z m-956 234 c13 -5 16 -25 16 -110 l0 -104 -45 0 c-33 0 -45 4 -45 15 0
10 -10 15 -30 15 -23 0 -30 5 -30 19 0 11 -6 26 -13 33 -7 7 -16 21 -20 31 -3
9 -11 17 -17 17 -5 0 -10 20 -10 45 l0 45 89 0 c49 0 96 -3 105 -6z m1206 -39
c0 -33 -4 -45 -15 -45 -10 0 -15 -10 -15 -30 0 -18 -5 -30 -13 -30 -7 0 -20
-9 -30 -20 -9 -11 -24 -20 -32 -20 -8 0 -15 -7 -15 -15 0 -11 -12 -15 -45 -15
l-45 0 -1 53 c-3 121 -1 150 12 158 8 5 56 9 107 9 l92 0 0 -45z"/>
</g>
</svg>
