<?xml version="1.0" standalone="no"?>
<!DOCTYPE svg PUBLIC "-//W3C//DTD SVG 20010904//EN"
 "http://www.w3.org/TR/2001/REC-SVG-20010904/DTD/svg10.dtd">
<svg version="1.0" xmlns="http://www.w3.org/2000/svg"
 width="191.000000pt" height="159.000000pt" viewBox="0 0 191.000000 159.000000"
 preserveAspectRatio="xMidYMid meet">

<g transform="translate(0.000000,159.000000) scale(0.100000,-0.100000)"
fill="#54101d" stroke="none">
<path d="M30 861 l0 -729 22 -6 c13 -3 62 -6 110 -6 60 0 88 -4 90 -12 3 -9
40 -14 124 -16 76 -3 122 -8 126 -15 5 -8 52 -14 124 -17 81 -3 119 -9 122
-17 6 -19 408 -19 414 0 3 8 41 14 122 17 72 3 119 9 124 17 4 7 50 12 126 15
84 2 121 7 124 16 2 8 30 12 90 12 48 0 97 3 110 6 l22 6 0 729 0 729 -45 0
c-27 0 -47 -5 -52 -14 -6 -11 -38 -15 -126 -18 -74 -2 -120 -7 -125 -14 -4 -7
-51 -13 -125 -15 -70 -3 -121 -9 -125 -15 -4 -6 -59 -14 -127 -18 -66 -3 -121
-11 -123 -16 -5 -13 -159 -13 -164 0 -2 6 -55 13 -118 17 -65 3 -118 11 -122
17 -4 6 -55 12 -125 15 -74 2 -121 8 -125 15 -5 7 -52 12 -128 14 -95 3 -120
7 -120 18 0 10 -14 14 -50 14 l-50 0 0 -729z m220 655 c0 -11 25 -15 120 -18
73 -2 124 -7 128 -14 4 -6 58 -14 127 -18 65 -3 121 -10 125 -15 3 -5 47 -12
98 -16 l92 -7 0 -669 c0 -588 -2 -669 -15 -669 -8 0 -15 -7 -15 -15 0 -8 -9
-15 -20 -15 -11 0 -20 7 -20 15 0 13 -20 15 -120 15 -97 0 -120 3 -120 14 0
11 -25 15 -120 18 -74 2 -124 7 -128 14 -4 7 -55 13 -127 16 -75 4 -121 10
-123 17 -2 6 -17 11 -33 11 l-29 0 0 675 0 675 90 0 c71 0 90 -3 90 -14z
m1590 -661 l0 -675 -29 0 c-16 0 -31 -5 -33 -11 -2 -7 -48 -13 -123 -17 -72
-3 -123 -9 -127 -16 -4 -7 -53 -12 -123 -14 -89 -3 -118 -7 -122 -18 -4 -11
-31 -14 -124 -14 -99 0 -119 -3 -119 -15 0 -10 -10 -15 -29 -15 -21 0 -30 6
-35 23 -3 12 -6 319 -6 683 l0 661 53 7 c28 3 71 6 94 6 23 0 43 5 45 11 2 7
48 13 123 17 72 3 123 9 127 16 4 7 53 12 124 14 84 3 121 8 131 18 10 10 39
14 94 14 l79 0 0 -675z"/>
<path d="M220 1267 c0 -10 19 -16 72 -21 40 -4 75 -10 78 -15 3 -4 68 -11 144
-14 84 -4 142 -11 146 -17 4 -7 29 -10 61 -8 46 3 54 6 57 24 4 28 -19 34
-145 34 -72 0 -103 4 -105 13 -3 9 -46 13 -156 15 -127 3 -152 1 -152 -11z"/>
<path d="M238 994 c-22 -7 -24 -24 -3 -24 8 0 15 -6 15 -13 0 -14 120 -27 252
-27 31 0 58 -4 60 -10 2 -5 35 -12 74 -16 108 -10 191 12 117 31 -15 3 -30 11
-34 16 -3 5 -73 12 -155 16 -82 3 -152 10 -155 14 -6 10 -146 20 -171 13z"/>
<path d="M220 686 c0 -30 20 -36 132 -36 60 0 88 -4 90 -12 3 -9 43 -14 141
-16 75 -2 137 -8 137 -13 0 -5 7 -9 15 -9 8 0 15 5 15 10 0 6 7 10 15 10 8 0
15 6 15 14 0 9 -24 15 -87 19 -47 4 -89 10 -92 15 -3 5 -69 12 -146 16 -78 3
-141 10 -143 16 -2 6 -24 10 -48 10 -40 0 -44 -2 -44 -24z"/>
<path d="M220 385 c0 -12 13 -15 60 -15 47 0 60 -3 60 -15 0 -13 23 -15 145
-15 122 0 145 -2 145 -15 0 -12 15 -15 75 -15 62 0 75 3 75 16 0 35 -24 41
-160 46 -92 3 -135 8 -138 16 -3 9 -41 12 -133 12 -108 0 -129 -2 -129 -15z"/>
<path d="M1398 1273 c-10 -2 -18 -9 -18 -14 0 -5 -46 -9 -102 -9 -127 0 -150
-6 -146 -34 3 -18 11 -21 57 -24 32 -2 57 1 61 8 4 6 62 13 146 17 76 3 141
10 144 14 3 5 38 11 78 15 51 5 72 11 72 20 0 11 -28 14 -137 13 -76 -1 -146
-3 -155 -6z"/>
<path d="M1533 993 c-18 -2 -33 -8 -33 -12 0 -4 -68 -11 -152 -15 -84 -4 -155
-11 -158 -16 -3 -4 -18 -12 -33 -15 -74 -19 9 -41 117 -31 39 4 73 11 74 16 2
6 29 10 60 10 132 0 252 13 252 27 0 7 7 13 15 13 8 0 15 4 15 9 0 18 -70 25
-157 14z"/>
<path d="M1598 700 c-2 -6 -65 -13 -143 -16 -77 -4 -143 -11 -146 -16 -3 -5
-45 -11 -92 -15 -63 -4 -87 -10 -87 -19 0 -8 7 -14 15 -14 8 0 15 -4 15 -10 0
-5 7 -10 15 -10 8 0 15 4 15 9 0 5 61 11 135 13 88 2 138 7 143 14 4 8 46 13
109 15 56 2 104 7 108 11 4 3 4 16 0 27 -5 17 -15 21 -45 21 -21 0 -40 -4 -42
-10z"/>
<path d="M1408 388 c-3 -9 -40 -14 -124 -16 -101 -3 -122 -7 -136 -22 -31 -33
-22 -40 57 -40 58 0 75 3 75 14 0 12 28 15 150 18 102 2 153 7 158 15 4 6 27
13 51 15 25 2 46 9 49 16 3 9 -29 12 -136 12 -103 0 -141 -3 -144 -12z"/>
</g>
</svg>
