<?xml version="1.0" standalone="no"?>
<!DOCTYPE svg PUBLIC "-//W3C//DTD SVG 20010904//EN"
 "http://www.w3.org/TR/2001/REC-SVG-20010904/DTD/svg10.dtd">
<svg version="1.0" xmlns="http://www.w3.org/2000/svg"
 width="160.000000pt" height="160.000000pt" viewBox="0 0 160.000000 160.000000"
 preserveAspectRatio="xMidYMid meet">

<g transform="translate(0.000000,160.000000) scale(0.100000,-0.100000)"
fill="#54101d" stroke="none">
<path d="M738 1563 c-10 -2 -18 -9 -18 -14 0 -5 -9 -9 -19 -9 -11 0 -26 -7
-34 -15 -8 -8 -33 -17 -55 -21 -23 -3 -43 -13 -46 -20 -3 -8 -19 -14 -35 -14
-16 0 -31 -5 -33 -11 -2 -5 -24 -13 -48 -16 -25 -4 -51 -12 -58 -20 -8 -7 -35
-13 -63 -13 -37 0 -49 -4 -49 -15 0 -12 -14 -15 -64 -15 -44 0 -69 -5 -80 -15
-9 -9 -33 -15 -60 -15 -33 0 -46 -4 -46 -14 0 -8 -7 -16 -15 -20 -22 -8 -22
-186 0 -186 12 0 15 -19 15 -109 0 -84 3 -113 15 -125 8 -8 15 -30 15 -50 0
-19 6 -41 13 -48 8 -7 16 -31 20 -52 3 -22 10 -42 15 -45 5 -3 13 -21 17 -38
3 -18 10 -33 15 -33 5 0 11 -13 15 -29 3 -16 13 -32 21 -35 8 -3 14 -17 14
-31 0 -16 6 -25 15 -25 8 0 15 -9 15 -20 0 -11 7 -20 15 -20 9 0 15 -9 15 -25
0 -16 6 -25 15 -25 8 0 15 -9 15 -20 0 -11 7 -20 15 -20 8 0 15 -7 15 -15 0
-8 7 -15 15 -15 8 0 15 -7 15 -15 0 -8 7 -15 15 -15 8 0 15 -7 15 -15 0 -8 6
-15 14 -15 7 0 16 -9 19 -20 3 -11 12 -20 21 -20 9 0 16 -7 16 -15 0 -8 5 -15
10 -15 6 0 21 -11 33 -24 13 -14 35 -28 50 -31 15 -4 27 -13 27 -21 0 -8 7
-14 15 -14 8 0 15 -7 15 -15 0 -8 9 -15 19 -15 11 0 26 -7 35 -15 8 -8 21 -15
29 -15 8 0 17 -7 21 -15 3 -8 16 -15 30 -15 13 0 26 -7 30 -15 3 -10 19 -15
46 -15 29 0 40 4 40 15 0 10 10 15 30 15 20 0 30 5 30 15 0 8 9 15 19 15 11 0
26 7 35 15 8 8 22 15 30 15 9 0 16 7 16 15 0 8 7 15 15 15 8 0 15 7 15 15 0 8
9 15 20 15 10 0 33 14 50 30 17 17 33 30 36 30 12 0 54 45 54 58 0 6 7 12 15
12 8 0 15 7 15 15 0 8 7 15 15 15 8 0 15 7 15 15 0 8 7 15 15 15 8 0 15 7 15
15 0 8 7 15 15 15 8 0 15 7 15 15 0 9 6 18 14 21 8 3 17 16 20 30 4 13 11 24
16 24 6 0 10 7 10 15 0 9 6 18 14 21 8 3 18 19 21 35 4 16 10 29 15 29 5 0 11
13 15 29 3 16 13 32 21 35 8 3 14 17 14 31 0 15 7 33 15 41 8 9 15 31 15 50 0
22 5 34 14 34 9 0 15 17 18 56 3 31 9 59 15 62 6 4 13 54 16 112 3 61 10 106
16 108 7 2 11 39 11 98 0 77 -3 94 -15 94 -8 0 -15 7 -15 15 0 11 -12 15 -44
15 -30 0 -46 5 -50 15 -4 11 -23 15 -81 15 -57 0 -75 3 -75 14 0 9 -18 15 -57
18 -31 3 -59 10 -61 16 -2 7 -19 12 -37 12 -19 0 -40 6 -47 14 -8 7 -29 17
-46 21 -18 3 -32 10 -32 14 0 5 -19 11 -41 14 -23 3 -45 10 -48 15 -3 6 -20
14 -36 18 -16 4 -36 13 -43 21 -13 12 -86 16 -124 6z m72 -43 c0 -5 14 -10 30
-10 18 0 33 -6 36 -15 4 -8 23 -18 44 -21 22 -4 41 -13 44 -20 3 -8 19 -14 35
-14 16 0 31 -5 33 -10 2 -6 21 -13 43 -17 22 -3 44 -12 48 -20 5 -8 26 -13 52
-13 33 0 45 -4 45 -15 0 -12 14 -15 65 -15 51 0 65 -3 65 -15 0 -12 15 -15 75
-15 60 0 75 -3 75 -15 0 -8 7 -15 15 -15 13 0 15 -24 15 -154 0 -128 -3 -155
-15 -160 -11 -4 -15 -21 -15 -65 0 -43 -4 -60 -15 -65 -10 -3 -15 -19 -15 -46
0 -27 -5 -43 -15 -46 -8 -4 -15 -18 -15 -34 0 -16 -6 -35 -14 -42 -7 -8 -17
-28 -20 -45 -4 -17 -14 -34 -22 -37 -8 -3 -14 -12 -14 -21 0 -8 -4 -15 -10
-15 -5 0 -12 -11 -16 -25 -3 -14 -10 -25 -15 -25 -5 0 -13 -8 -16 -17 -4 -10
-13 -24 -20 -31 -7 -7 -13 -22 -13 -33 0 -10 -7 -19 -15 -19 -8 0 -15 -7 -15
-15 0 -8 -7 -15 -15 -15 -8 0 -15 -7 -15 -15 0 -8 -7 -15 -15 -15 -8 0 -15 -7
-15 -15 0 -8 -7 -15 -15 -15 -8 0 -15 -7 -15 -15 0 -8 -6 -15 -13 -15 -7 0
-24 -13 -37 -30 -14 -16 -31 -29 -37 -30 -7 0 -13 -6 -13 -14 0 -8 -13 -17
-30 -21 -16 -4 -30 -13 -30 -21 0 -8 -9 -14 -19 -14 -11 0 -26 -7 -35 -15 -8
-8 -20 -15 -26 -15 -6 0 -13 -7 -16 -15 -4 -9 -19 -15 -35 -15 -19 0 -29 -5
-29 -15 0 -11 -12 -15 -45 -15 -33 0 -45 4 -45 15 0 10 -10 15 -30 15 -20 0
-30 5 -30 15 0 10 -10 15 -30 15 -20 0 -30 5 -30 15 0 8 -9 15 -20 15 -11 0
-20 7 -20 15 0 8 -4 15 -10 15 -6 0 -19 9 -30 20 -11 11 -27 20 -35 20 -8 0
-15 7 -15 15 0 8 -7 15 -15 15 -8 0 -15 7 -15 15 0 8 -7 15 -15 15 -8 0 -15 7
-15 15 0 8 -6 15 -14 15 -8 0 -16 7 -20 15 -3 8 -12 15 -21 15 -8 0 -15 6 -15
14 0 8 -7 16 -15 20 -8 3 -15 12 -15 21 0 8 -4 15 -10 15 -5 0 -12 11 -16 25
-3 14 -12 25 -20 25 -8 0 -14 9 -14 20 0 11 -6 20 -14 20 -8 0 -17 11 -20 25
-4 14 -11 25 -16 25 -6 0 -10 9 -10 20 0 11 -7 20 -15 20 -10 0 -15 10 -15 30
0 17 -6 33 -14 36 -7 3 -16 23 -20 45 -3 21 -10 39 -16 39 -5 0 -12 21 -16 48
-4 26 -11 50 -17 53 -5 4 -12 31 -15 60 -3 30 -10 57 -16 61 -7 5 -12 63 -14
163 -3 136 -1 155 12 155 9 0 16 7 16 15 0 12 16 15 80 15 64 0 80 3 80 15 0
12 13 15 60 15 47 0 60 3 60 15 0 11 12 15 50 15 38 0 50 4 50 15 0 11 12 15
45 15 33 0 45 4 45 15 0 10 10 15 30 15 17 0 33 6 36 14 3 8 25 17 50 21 28 4
44 11 44 21 0 9 11 14 30 14 17 0 30 5 30 10 0 6 7 10 15 10 8 0 15 -4 15 -10z"/>
</g>
</svg>
