<?xml version="1.0" standalone="no"?>
<!DOCTYPE svg PUBLIC "-//W3C//DTD SVG 20010904//EN"
 "http://www.w3.org/TR/2001/REC-SVG-20010904/DTD/svg10.dtd">
<svg version="1.0" xmlns="http://www.w3.org/2000/svg"
 width="368.000000pt" height="434.000000pt" viewBox="0 0 368.000000 434.000000"
 preserveAspectRatio="xMidYMid meet">

<g transform="translate(0.000000,434.000000) scale(0.100000,-0.100000)"
fill="#bb9059" stroke="none">
<path d="M1042 4324 c-113 -30 -221 -125 -264 -232 -23 -56 -23 -65 -26 -472
l-3 -415 23 -45 c31 -60 77 -90 140 -90 66 0 114 24 146 73 l27 41 3 398 c3
379 4 398 22 408 12 7 386 9 1112 8 l1092 -3 13 -25 c10 -20 13 -389 13 -1800
0 -1411 -3 -1780 -13 -1800 l-13 -25 -1092 -3 c-726 -1 -1100 1 -1112 8 -18
10 -19 29 -22 408 l-3 398 -27 41 c-32 49 -80 73 -146 73 -63 0 -109 -30 -140
-90 l-23 -45 3 -415 c3 -407 3 -416 26 -472 27 -67 103 -155 167 -192 99 -58
60 -57 1291 -54 l1129 3 55 22 c73 31 137 82 183 150 72 107 67 -47 65 2013
l-3 1855 -31 65 c-34 71 -94 137 -158 175 -96 56 -64 55 -1271 54 -930 0
-1119 -3 -1163 -15z"/>
<path d="M1667 3366 c-72 -26 -109 -79 -110 -155 0 -25 7 -59 15 -76 9 -16
177 -201 374 -410 l358 -380 -1090 -5 -1089 -5 -35 -22 c-104 -65 -104 -221 0
-286 l35 -22 1089 -5 1090 -5 -358 -380 c-197 -209 -365 -394 -372 -412 -44
-101 22 -218 130 -230 91 -11 79 -22 623 556 277 295 512 550 521 566 19 37
20 111 1 147 -21 40 -1015 1096 -1047 1112 -44 23 -94 27 -135 12z"/>
</g>
</svg>
