<?xml version="1.0" standalone="no"?>
<!DOCTYPE svg PUBLIC "-//W3C//DTD SVG 20010904//EN"
 "http://www.w3.org/TR/2001/REC-SVG-20010904/DTD/svg10.dtd">
<svg version="1.0" xmlns="http://www.w3.org/2000/svg"
 width="356.000000pt" height="476.000000pt" viewBox="0 0 356.000000 476.000000"
 preserveAspectRatio="xMidYMid meet">

<g transform="translate(0.000000,476.000000) scale(0.100000,-0.100000)"
fill="#54101d" stroke="none">
<path d="M775 4659 c-194 -50 -378 -103 -412 -119 -166 -77 -269 -203 -325
-397 -22 -74 -23 -95 -23 -398 0 -325 6 -407 46 -655 110 -677 428 -1370 902
-1969 126 -159 437 -469 587 -585 303 -234 722 -473 899 -512 151 -34 300 -3
442 92 98 65 571 552 619 637 34 60 35 66 35 167 0 94 -3 111 -27 160 -15 30
-46 74 -70 97 -81 77 -783 616 -838 642 -47 22 -69 26 -145 26 -100 0 -100 0
-298 -109 -78 -43 -95 -49 -151 -49 -73 -1 -135 25 -183 75 -17 18 -161 258
-319 533 l-289 500 -3 72 c-7 125 38 186 202 278 114 64 165 110 203 182 36
67 45 105 44 177 0 51 -101 828 -122 941 -33 180 -187 307 -367 304 -36 0
-184 -33 -407 -90z m465 -229 c11 -11 20 -26 20 -34 0 -7 27 -215 60 -461 53
-394 59 -450 47 -469 -8 -11 -58 -46 -111 -76 -167 -94 -258 -194 -308 -338
-33 -98 -32 -260 3 -352 23 -59 505 -908 601 -1058 110 -170 297 -263 501
-249 103 7 172 31 293 102 69 41 103 55 125 53 40 -4 762 -561 780 -601 8 -20
9 -34 1 -50 -5 -12 -121 -135 -256 -274 -213 -217 -256 -257 -311 -284 -57
-28 -72 -31 -132 -27 -59 3 -84 12 -193 65 -633 313 -1108 761 -1502 1418
-342 571 -513 1123 -549 1780 -25 435 12 602 147 681 50 30 659 191 727 193
25 1 44 -6 57 -19z"/>
</g>
</svg>
