<?xml version="1.0" standalone="no"?>
<!DOCTYPE svg PUBLIC "-//W3C//DTD SVG 20010904//EN"
 "http://www.w3.org/TR/2001/REC-SVG-20010904/DTD/svg10.dtd">
<svg version="1.0" xmlns="http://www.w3.org/2000/svg"
 width="235.000000pt" height="316.000000pt" viewBox="0 0 235.000000 316.000000"
 preserveAspectRatio="xMidYMid meet">

<g transform="translate(0.000000,316.000000) scale(0.100000,-0.100000)"
fill="#54101d" stroke="none">
<path d="M972 3135 c-485 -88 -857 -457 -953 -945 -19 -98 -17 -328 5 -430 50
-241 76 -285 606 -1045 254 -363 471 -670 482 -683 29 -31 87 -30 116 1 46 49
943 1346 981 1418 329 625 8 1413 -667 1639 -173 58 -399 76 -570 45z m308
-165 c230 -29 413 -115 579 -274 127 -123 213 -264 267 -441 26 -84 28 -102
28 -270 0 -168 -2 -186 -28 -270 -15 -49 -44 -124 -64 -166 -38 -76 -876
-1289 -892 -1289 -16 0 -854 1213 -892 1289 -20 42 -49 117 -65 166 -25 84
-27 102 -27 270 0 167 2 186 28 270 53 176 140 318 267 441 158 152 351 246
564 273 99 12 139 12 235 1z"/>
<path d="M1060 2442 c-85 -22 -143 -58 -208 -126 -166 -175 -158 -442 18 -610
173 -165 427 -165 600 0 182 173 183 454 2 626 -68 65 -118 93 -204 113 -80
19 -127 18 -208 -3z m203 -178 c104 -35 174 -147 165 -262 -10 -135 -105 -230
-240 -240 -240 -18 -373 272 -202 442 71 72 177 94 277 60z"/>
</g>
</svg>
