<?xml version="1.0" standalone="no"?>
<!DOCTYPE svg PUBLIC "-//W3C//DTD SVG 20010904//EN"
 "http://www.w3.org/TR/2001/REC-SVG-20010904/DTD/svg10.dtd">
<svg version="1.0" xmlns="http://www.w3.org/2000/svg"
 width="533.000000pt" height="396.000000pt" viewBox="0 0 533.000000 396.000000"
 preserveAspectRatio="xMidYMid meet">

<g transform="translate(0.000000,396.000000) scale(0.100000,-0.100000)"
fill="#000000" stroke="none">
<path d="M1740 3942 c-28 -13 -194 -231 -792 -1037 -493 -665 -772 -1050 -801
-1105 -96 -181 -140 -358 -140 -560 0 -214 40 -387 134 -570 124 -242 311
-423 564 -546 385 -186 837 -156 1201 81 113 73 272 232 348 348 175 265 242
600 180 901 -76 373 -317 691 -649 861 -49 24 -90 46 -92 49 -2 2 152 322 343
712 373 764 372 761 327 822 -42 58 -64 62 -338 62 -218 0 -254 -2 -285 -18z"/>
<path d="M4623 3953 c-12 -2 -32 -15 -45 -28 -33 -33 -1496 -2008 -1537 -2074
-218 -357 -224 -850 -15 -1216 362 -636 1163 -824 1768 -416 356 241 562 675
525 1107 -37 426 -309 819 -695 1003 l-71 33 349 714 c373 764 369 754 328
822 -35 58 -60 62 -337 61 -136 -1 -258 -4 -270 -6z"/>
</g>
</svg>
