<?xml version="1.0" standalone="no"?>
<!DOCTYPE svg PUBLIC "-//W3C//DTD SVG 20010904//EN"
 "http://www.w3.org/TR/2001/REC-SVG-20010904/DTD/svg10.dtd">
<svg version="1.0" xmlns="http://www.w3.org/2000/svg"
 width="134.000000pt" height="188.000000pt" viewBox="0 0 134.000000 188.000000"
 preserveAspectRatio="xMidYMid meet">

<g transform="translate(0.000000,188.000000) scale(0.100000,-0.100000)"
fill="#54101d" stroke="none">
<path d="M563 1873 c-18 -2 -33 -8 -33 -13 0 -5 -22 -12 -50 -16 -32 -4 -50
-11 -50 -20 0 -9 -11 -14 -30 -14 -20 0 -30 -5 -30 -15 0 -10 -10 -15 -30 -15
-20 0 -30 -5 -30 -15 0 -8 -7 -15 -15 -15 -8 0 -15 -7 -15 -15 0 -8 -9 -15
-20 -15 -11 0 -20 -7 -20 -15 0 -8 -7 -15 -15 -15 -8 0 -15 -7 -15 -15 0 -8
-7 -15 -15 -15 -8 0 -15 -6 -15 -14 0 -8 -7 -16 -15 -20 -8 -3 -15 -12 -15
-21 0 -8 -7 -15 -15 -15 -10 0 -15 -10 -15 -30 0 -20 -5 -30 -15 -30 -10 0
-15 -10 -15 -30 0 -20 -5 -30 -15 -30 -11 0 -15 -12 -15 -45 0 -31 -5 -47 -15
-51 -12 -5 -15 -29 -15 -129 0 -83 4 -125 11 -127 6 -2 14 -28 17 -57 3 -31
10 -55 18 -58 8 -3 14 -18 14 -34 0 -19 5 -29 15 -29 10 0 15 -10 15 -30 0
-20 5 -30 15 -30 8 0 15 -7 15 -15 0 -8 7 -15 15 -15 8 0 15 -7 15 -15 0 -9 7
-18 15 -21 8 -4 15 -12 15 -20 0 -8 6 -14 14 -14 8 0 16 -7 20 -15 3 -8 12
-15 21 -15 8 0 15 -7 15 -15 0 -8 7 -15 15 -15 8 0 15 -7 15 -15 0 -8 7 -15
16 -15 13 0 15 -20 13 -158 -2 -139 0 -157 15 -160 16 -3 22 -43 18 -119 -1
-30 1 -33 27 -33 35 0 41 -16 41 -117 l0 -73 230 0 230 0 0 95 0 95 30 0 30 0
0 74 0 74 30 7 30 7 0 169 c0 162 1 169 20 169 11 0 20 7 20 15 0 8 7 15 15
15 8 0 15 7 15 15 0 8 7 15 15 15 8 0 15 7 15 15 0 8 7 15 15 15 8 0 15 7 15
15 0 9 7 18 15 21 8 4 15 12 15 20 0 8 6 14 14 14 8 0 17 13 21 30 4 16 10 30
15 30 4 0 11 12 15 27 3 15 11 31 17 34 6 4 13 31 16 60 3 30 10 57 16 61 15
10 15 236 0 246 -6 4 -14 27 -17 51 -3 24 -10 47 -15 50 -6 3 -14 19 -17 34
-4 15 -11 27 -15 27 -5 0 -11 14 -15 30 -4 17 -13 30 -21 30 -8 0 -14 9 -14
20 0 11 -7 20 -15 20 -8 0 -15 7 -15 15 0 8 -7 15 -15 15 -8 0 -15 7 -15 15 0
8 -7 15 -15 15 -8 0 -15 7 -15 15 0 8 -7 15 -15 15 -8 0 -15 7 -15 15 0 8 -7
15 -15 15 -8 0 -15 7 -15 15 0 10 -10 15 -30 15 -19 0 -30 5 -30 14 0 8 -15
17 -35 20 -19 4 -35 11 -35 15 0 5 -19 11 -41 14 -23 3 -45 11 -49 17 -7 12
-190 22 -247 13z m219 -44 c2 -5 24 -13 48 -16 25 -4 51 -12 58 -20 7 -7 27
-13 43 -13 19 0 29 -5 29 -15 0 -8 9 -15 20 -15 11 0 20 -7 20 -15 0 -9 9 -15
25 -15 16 0 25 -6 25 -15 0 -8 9 -15 20 -15 13 0 20 -7 20 -20 0 -11 6 -20 14
-20 8 0 17 -11 20 -25 4 -14 11 -25 16 -25 6 0 10 -7 10 -15 0 -9 6 -18 14
-21 8 -3 18 -19 21 -35 4 -16 10 -29 15 -29 4 0 11 -12 15 -27 3 -15 12 -31
18 -35 6 -4 13 -40 15 -82 2 -42 8 -76 13 -76 5 0 9 -13 9 -30 0 -16 -4 -30
-9 -30 -5 0 -11 -35 -13 -77 -2 -48 -8 -78 -16 -81 -7 -2 -12 -13 -12 -25 0
-38 -12 -67 -26 -67 -9 0 -14 -11 -14 -30 0 -20 -5 -30 -15 -30 -8 0 -15 -7
-15 -15 0 -8 -7 -15 -15 -15 -8 0 -15 -9 -15 -20 0 -11 -7 -20 -15 -20 -8 0
-15 -7 -15 -15 0 -8 -7 -15 -15 -15 -8 0 -15 -7 -15 -15 0 -8 -9 -15 -20 -15
-11 0 -20 -7 -20 -15 0 -9 -9 -15 -25 -15 -24 0 -25 -2 -25 -64 0 -78 -14 -96
-73 -96 -77 0 -87 7 -87 56 0 32 4 44 15 44 12 0 15 18 15 105 0 87 3 105 15
105 12 0 15 17 15 95 0 76 3 97 15 101 8 4 15 17 15 30 0 20 -5 24 -30 24 -20
0 -30 -5 -30 -15 0 -8 -6 -15 -14 -15 -8 0 -16 -7 -20 -15 -3 -10 -19 -15 -47
-15 -32 0 -42 4 -46 20 -3 11 -12 20 -19 20 -8 0 -14 7 -14 15 0 19 -19 19
-26 0 -4 -8 -12 -15 -20 -15 -8 0 -14 -9 -14 -20 0 -17 -7 -20 -45 -20 -33 0
-45 4 -45 15 0 8 -7 15 -15 15 -9 0 -18 7 -21 15 -4 8 -17 15 -30 15 -20 0
-24 -5 -24 -30 0 -16 4 -30 9 -30 5 0 12 -40 16 -90 4 -50 11 -90 15 -90 4 0
11 -48 15 -107 4 -60 11 -110 15 -113 4 -3 10 -24 13 -46 6 -37 5 -42 -16 -48
-28 -7 -86 -7 -114 0 -21 6 -23 12 -23 80 l0 74 -30 0 c-20 0 -30 5 -30 15 0
8 -7 15 -15 15 -8 0 -15 7 -15 15 0 8 -6 15 -12 15 -16 0 -58 44 -58 59 0 6
-7 11 -15 11 -9 0 -15 9 -15 24 0 13 -7 26 -15 30 -8 3 -15 12 -15 21 0 8 -7
15 -15 15 -11 0 -15 12 -15 45 0 31 -4 45 -13 45 -10 0 -16 25 -20 95 -9 131
2 285 20 285 8 0 13 11 13 30 0 20 5 30 15 30 10 0 15 10 15 30 0 20 5 30 15
30 8 0 15 9 15 20 0 11 7 20 15 20 8 0 15 7 15 15 0 8 9 23 20 32 11 10 20 23
20 30 0 7 7 13 15 13 8 0 15 7 15 15 0 10 10 15 30 15 20 0 30 5 30 15 0 8 7
15 15 15 8 0 15 7 15 15 0 10 10 15 30 15 16 0 33 6 37 14 4 7 33 16 63 19 30
4 56 11 58 17 5 14 219 13 224 -1z m-102 -754 c0 -8 6 -15 14 -15 8 0 16 -7
20 -15 3 -8 12 -15 21 -15 8 0 15 -7 15 -15 0 -8 5 -15 10 -15 6 0 10 7 10 15
0 8 9 15 20 15 11 0 20 7 20 15 0 20 16 19 24 -1 11 -30 7 -74 -8 -74 -11 0
-15 -23 -18 -105 -2 -64 -7 -109 -14 -113 -6 -4 -13 -37 -16 -74 -2 -37 -7
-71 -11 -75 -11 -10 -130 -17 -171 -9 l-34 6 -4 71 c-2 39 -9 73 -14 77 -6 4
-14 54 -17 112 -3 61 -10 106 -16 108 -13 4 -15 92 -2 92 5 0 11 -7 15 -15 3
-8 12 -15 21 -15 8 0 15 -7 15 -15 0 -8 7 -15 15 -15 8 0 15 7 15 15 0 8 7 15
15 15 8 0 15 7 15 15 0 8 7 15 15 15 9 0 18 7 21 15 4 8 10 15 15 15 5 0 9 -7
9 -15z m284 -537 c7 -29 7 -77 0 -105 l-6 -23 -294 0 -294 0 0 75 0 75 294 0
294 0 6 -22z m-62 -181 c4 -7 8 -26 8 -44 0 -66 11 -63 -246 -63 l-234 0 0 59
0 60 53 3 c119 7 412 -4 419 -15z m-60 -174 c3 -21 3 -57 0 -81 l-5 -42 -171
2 -171 3 -3 78 -3 77 174 0 175 0 4 -37z"/>
</g>
</svg>
